%TF.GenerationSoftware,KiCad,Pcbnew,5.1.10*%
%TF.CreationDate,2021-08-17T12:22:00-04:00*%
%TF.ProjectId,OBD_BO,4f42445f-424f-42e6-9b69-6361645f7063,rev?*%
%TF.SameCoordinates,Original*%
%TF.FileFunction,Legend,Top*%
%TF.FilePolarity,Positive*%
%FSLAX46Y46*%
G04 Gerber Fmt 4.6, Leading zero omitted, Abs format (unit mm)*
G04 Created by KiCad (PCBNEW 5.1.10) date 2021-08-17 12:22:00*
%MOMM*%
%LPD*%
G01*
G04 APERTURE LIST*
%ADD10C,0.150000*%
%ADD11C,0.120000*%
G04 APERTURE END LIST*
D10*
X84298857Y-82240380D02*
X83727428Y-82240380D01*
X84013142Y-82240380D02*
X84013142Y-81240380D01*
X83917904Y-81383238D01*
X83822666Y-81478476D01*
X83727428Y-81526095D01*
X86203619Y-81335619D02*
X86251238Y-81288000D01*
X86346476Y-81240380D01*
X86584571Y-81240380D01*
X86679809Y-81288000D01*
X86727428Y-81335619D01*
X86775047Y-81430857D01*
X86775047Y-81526095D01*
X86727428Y-81668952D01*
X86156000Y-82240380D01*
X86775047Y-82240380D01*
X88632190Y-81240380D02*
X89251238Y-81240380D01*
X88917904Y-81621333D01*
X89060761Y-81621333D01*
X89156000Y-81668952D01*
X89203619Y-81716571D01*
X89251238Y-81811809D01*
X89251238Y-82049904D01*
X89203619Y-82145142D01*
X89156000Y-82192761D01*
X89060761Y-82240380D01*
X88775047Y-82240380D01*
X88679809Y-82192761D01*
X88632190Y-82145142D01*
X91632190Y-81573714D02*
X91632190Y-82240380D01*
X91394095Y-81192761D02*
X91156000Y-81907047D01*
X91775047Y-81907047D01*
X94156000Y-81240380D02*
X93679809Y-81240380D01*
X93632190Y-81716571D01*
X93679809Y-81668952D01*
X93775047Y-81621333D01*
X94013142Y-81621333D01*
X94108380Y-81668952D01*
X94156000Y-81716571D01*
X94203619Y-81811809D01*
X94203619Y-82049904D01*
X94156000Y-82145142D01*
X94108380Y-82192761D01*
X94013142Y-82240380D01*
X93775047Y-82240380D01*
X93679809Y-82192761D01*
X93632190Y-82145142D01*
X96584571Y-81240380D02*
X96394095Y-81240380D01*
X96298857Y-81288000D01*
X96251238Y-81335619D01*
X96156000Y-81478476D01*
X96108380Y-81668952D01*
X96108380Y-82049904D01*
X96156000Y-82145142D01*
X96203619Y-82192761D01*
X96298857Y-82240380D01*
X96489333Y-82240380D01*
X96584571Y-82192761D01*
X96632190Y-82145142D01*
X96679809Y-82049904D01*
X96679809Y-81811809D01*
X96632190Y-81716571D01*
X96584571Y-81668952D01*
X96489333Y-81621333D01*
X96298857Y-81621333D01*
X96203619Y-81668952D01*
X96156000Y-81716571D01*
X96108380Y-81811809D01*
X98536952Y-81240380D02*
X99203619Y-81240380D01*
X98775047Y-82240380D01*
X101251238Y-81668952D02*
X101156000Y-81621333D01*
X101108380Y-81573714D01*
X101060761Y-81478476D01*
X101060761Y-81430857D01*
X101108380Y-81335619D01*
X101156000Y-81288000D01*
X101251238Y-81240380D01*
X101441714Y-81240380D01*
X101536952Y-81288000D01*
X101584571Y-81335619D01*
X101632190Y-81430857D01*
X101632190Y-81478476D01*
X101584571Y-81573714D01*
X101536952Y-81621333D01*
X101441714Y-81668952D01*
X101251238Y-81668952D01*
X101156000Y-81716571D01*
X101108380Y-81764190D01*
X101060761Y-81859428D01*
X101060761Y-82049904D01*
X101108380Y-82145142D01*
X101156000Y-82192761D01*
X101251238Y-82240380D01*
X101441714Y-82240380D01*
X101536952Y-82192761D01*
X101584571Y-82145142D01*
X101632190Y-82049904D01*
X101632190Y-81859428D01*
X101584571Y-81764190D01*
X101536952Y-81716571D01*
X101441714Y-81668952D01*
X107441714Y-82240380D02*
X107632190Y-82240380D01*
X107727428Y-82192761D01*
X107775047Y-82145142D01*
X107870285Y-82002285D01*
X107917904Y-81811809D01*
X107917904Y-81430857D01*
X107870285Y-81335619D01*
X107822666Y-81288000D01*
X107727428Y-81240380D01*
X107536952Y-81240380D01*
X107441714Y-81288000D01*
X107394095Y-81335619D01*
X107346476Y-81430857D01*
X107346476Y-81668952D01*
X107394095Y-81764190D01*
X107441714Y-81811809D01*
X107536952Y-81859428D01*
X107727428Y-81859428D01*
X107822666Y-81811809D01*
X107870285Y-81764190D01*
X107917904Y-81668952D01*
X109632190Y-82240380D02*
X109060761Y-82240380D01*
X109346476Y-82240380D02*
X109346476Y-81240380D01*
X109251238Y-81383238D01*
X109156000Y-81478476D01*
X109060761Y-81526095D01*
X110251238Y-81240380D02*
X110346476Y-81240380D01*
X110441714Y-81288000D01*
X110489333Y-81335619D01*
X110536952Y-81430857D01*
X110584571Y-81621333D01*
X110584571Y-81859428D01*
X110536952Y-82049904D01*
X110489333Y-82145142D01*
X110441714Y-82192761D01*
X110346476Y-82240380D01*
X110251238Y-82240380D01*
X110156000Y-82192761D01*
X110108380Y-82145142D01*
X110060761Y-82049904D01*
X110013142Y-81859428D01*
X110013142Y-81621333D01*
X110060761Y-81430857D01*
X110108380Y-81335619D01*
X110156000Y-81288000D01*
X110251238Y-81240380D01*
X112298857Y-82240380D02*
X111727428Y-82240380D01*
X112013142Y-82240380D02*
X112013142Y-81240380D01*
X111917904Y-81383238D01*
X111822666Y-81478476D01*
X111727428Y-81526095D01*
X113251238Y-82240380D02*
X112679809Y-82240380D01*
X112965523Y-82240380D02*
X112965523Y-81240380D01*
X112870285Y-81383238D01*
X112775047Y-81478476D01*
X112679809Y-81526095D01*
X114965523Y-82240380D02*
X114394095Y-82240380D01*
X114679809Y-82240380D02*
X114679809Y-81240380D01*
X114584571Y-81383238D01*
X114489333Y-81478476D01*
X114394095Y-81526095D01*
X115346476Y-81335619D02*
X115394095Y-81288000D01*
X115489333Y-81240380D01*
X115727428Y-81240380D01*
X115822666Y-81288000D01*
X115870285Y-81335619D01*
X115917904Y-81430857D01*
X115917904Y-81526095D01*
X115870285Y-81668952D01*
X115298857Y-82240380D01*
X115917904Y-82240380D01*
X117632190Y-82240380D02*
X117060761Y-82240380D01*
X117346476Y-82240380D02*
X117346476Y-81240380D01*
X117251238Y-81383238D01*
X117155999Y-81478476D01*
X117060761Y-81526095D01*
X117965523Y-81240380D02*
X118584571Y-81240380D01*
X118251238Y-81621333D01*
X118394095Y-81621333D01*
X118489333Y-81668952D01*
X118536952Y-81716571D01*
X118584571Y-81811809D01*
X118584571Y-82049904D01*
X118536952Y-82145142D01*
X118489333Y-82192761D01*
X118394095Y-82240380D01*
X118108380Y-82240380D01*
X118013142Y-82192761D01*
X117965523Y-82145142D01*
X120298857Y-82240380D02*
X119727428Y-82240380D01*
X120013142Y-82240380D02*
X120013142Y-81240380D01*
X119917904Y-81383238D01*
X119822666Y-81478476D01*
X119727428Y-81526095D01*
X121156000Y-81573714D02*
X121156000Y-82240380D01*
X120917904Y-81192761D02*
X120679809Y-81907047D01*
X121298857Y-81907047D01*
X122965523Y-82240380D02*
X122394095Y-82240380D01*
X122679809Y-82240380D02*
X122679809Y-81240380D01*
X122584571Y-81383238D01*
X122489333Y-81478476D01*
X122394095Y-81526095D01*
X123870285Y-81240380D02*
X123394095Y-81240380D01*
X123346476Y-81716571D01*
X123394095Y-81668952D01*
X123489333Y-81621333D01*
X123727428Y-81621333D01*
X123822666Y-81668952D01*
X123870285Y-81716571D01*
X123917904Y-81811809D01*
X123917904Y-82049904D01*
X123870285Y-82145142D01*
X123822666Y-82192761D01*
X123727428Y-82240380D01*
X123489333Y-82240380D01*
X123394095Y-82192761D01*
X123346476Y-82145142D01*
X125632190Y-82240380D02*
X125060761Y-82240380D01*
X125346476Y-82240380D02*
X125346476Y-81240380D01*
X125251238Y-81383238D01*
X125156000Y-81478476D01*
X125060761Y-81526095D01*
X126489333Y-81240380D02*
X126298857Y-81240380D01*
X126203619Y-81288000D01*
X126156000Y-81335619D01*
X126060761Y-81478476D01*
X126013142Y-81668952D01*
X126013142Y-82049904D01*
X126060761Y-82145142D01*
X126108380Y-82192761D01*
X126203619Y-82240380D01*
X126394095Y-82240380D01*
X126489333Y-82192761D01*
X126536952Y-82145142D01*
X126584571Y-82049904D01*
X126584571Y-81811809D01*
X126536952Y-81716571D01*
X126489333Y-81668952D01*
X126394095Y-81621333D01*
X126203619Y-81621333D01*
X126108380Y-81668952D01*
X126060761Y-81716571D01*
X126013142Y-81811809D01*
D11*
%TO.C,J3*%
X127060000Y-86420000D02*
X127060000Y-83760000D01*
X109220000Y-86420000D02*
X127060000Y-86420000D01*
X109220000Y-83760000D02*
X127060000Y-83760000D01*
X109220000Y-86420000D02*
X109220000Y-83760000D01*
X107950000Y-86420000D02*
X106620000Y-86420000D01*
X106620000Y-86420000D02*
X106620000Y-85090000D01*
%TO.C,J2*%
X102930000Y-86420000D02*
X102930000Y-83760000D01*
X85090000Y-86420000D02*
X102930000Y-86420000D01*
X85090000Y-83760000D02*
X102930000Y-83760000D01*
X85090000Y-86420000D02*
X85090000Y-83760000D01*
X83820000Y-86420000D02*
X82490000Y-86420000D01*
X82490000Y-86420000D02*
X82490000Y-85090000D01*
%TO.C,J3*%
D10*
X105072380Y-85423333D02*
X105786666Y-85423333D01*
X105929523Y-85470952D01*
X106024761Y-85566190D01*
X106072380Y-85709047D01*
X106072380Y-85804285D01*
X105072380Y-85042380D02*
X105072380Y-84423333D01*
X105453333Y-84756666D01*
X105453333Y-84613809D01*
X105500952Y-84518571D01*
X105548571Y-84470952D01*
X105643809Y-84423333D01*
X105881904Y-84423333D01*
X105977142Y-84470952D01*
X106024761Y-84518571D01*
X106072380Y-84613809D01*
X106072380Y-84899523D01*
X106024761Y-84994761D01*
X105977142Y-85042380D01*
%TO.C,J2*%
X80942380Y-85423333D02*
X81656666Y-85423333D01*
X81799523Y-85470952D01*
X81894761Y-85566190D01*
X81942380Y-85709047D01*
X81942380Y-85804285D01*
X81037619Y-84994761D02*
X80990000Y-84947142D01*
X80942380Y-84851904D01*
X80942380Y-84613809D01*
X80990000Y-84518571D01*
X81037619Y-84470952D01*
X81132857Y-84423333D01*
X81228095Y-84423333D01*
X81370952Y-84470952D01*
X81942380Y-85042380D01*
X81942380Y-84423333D01*
%TO.C,J1*%
X103552666Y-70445380D02*
X103552666Y-71159666D01*
X103505047Y-71302523D01*
X103409809Y-71397761D01*
X103266952Y-71445380D01*
X103171714Y-71445380D01*
X104552666Y-71445380D02*
X103981238Y-71445380D01*
X104266952Y-71445380D02*
X104266952Y-70445380D01*
X104171714Y-70588238D01*
X104076476Y-70683476D01*
X103981238Y-70731095D01*
%TD*%
M02*
