M48
; DRILL file {KiCad 5.1.10} date Tue Aug 17 12:21:57 2021
; FORMAT={-:-/ absolute / inch / decimal}
; #@! TF.CreationDate,2021-08-17T12:21:57-04:00
; #@! TF.GenerationSoftware,Kicad,Pcbnew,5.1.10
; #@! TF.FileFunction,Plated,1,2,PTH
FMAT,2
INCH
T1C0.0394
T2C0.0472
%
G90
G05
T1
X3.3Y-3.35
X3.4Y-3.35
X3.5Y-3.35
X3.6Y-3.35
X3.7Y-3.35
X3.8Y-3.35
X3.9Y-3.35
X4.0Y-3.35
X4.25Y-3.35
X4.35Y-3.35
X4.45Y-3.35
X4.55Y-3.35
X4.65Y-3.35
X4.75Y-3.35
X4.85Y-3.35
X4.95Y-3.35
T2
X3.5276Y-2.9
X3.5276Y-3.0181
X3.685Y-2.9
X3.685Y-3.0181
X3.8425Y-2.9
X3.8425Y-3.0181
X4.0Y-2.9
X4.0Y-3.0181
X4.1575Y-2.9
X4.1575Y-3.0181
X4.315Y-2.9
X4.315Y-3.0181
X4.4724Y-2.9
X4.4724Y-3.0181
X4.6299Y-2.9
X4.6299Y-3.0181
T0
M30
