%TF.GenerationSoftware,KiCad,Pcbnew,5.1.10*%
%TF.CreationDate,2021-08-17T12:22:00-04:00*%
%TF.ProjectId,OBD_BO,4f42445f-424f-42e6-9b69-6361645f7063,rev?*%
%TF.SameCoordinates,Original*%
%TF.FileFunction,Legend,Bot*%
%TF.FilePolarity,Positive*%
%FSLAX46Y46*%
G04 Gerber Fmt 4.6, Leading zero omitted, Abs format (unit mm)*
G04 Created by KiCad (PCBNEW 5.1.10) date 2021-08-17 12:22:00*
%MOMM*%
%LPD*%
G01*
G04 APERTURE LIST*
%ADD10C,0.150000*%
G04 APERTURE END LIST*
D10*
X126489833Y-68620714D02*
X126489833Y-69287380D01*
X126727928Y-68239761D02*
X126966023Y-68954047D01*
X126346976Y-68954047D01*
X124442214Y-68906428D02*
X123680309Y-68906428D01*
X121870785Y-69192142D02*
X121918404Y-69239761D01*
X122061261Y-69287380D01*
X122156500Y-69287380D01*
X122299357Y-69239761D01*
X122394595Y-69144523D01*
X122442214Y-69049285D01*
X122489833Y-68858809D01*
X122489833Y-68715952D01*
X122442214Y-68525476D01*
X122394595Y-68430238D01*
X122299357Y-68335000D01*
X122156500Y-68287380D01*
X122061261Y-68287380D01*
X121918404Y-68335000D01*
X121870785Y-68382619D01*
X121442214Y-69287380D02*
X121442214Y-68287380D01*
X121013642Y-69287380D02*
X121013642Y-68763571D01*
X121061261Y-68668333D01*
X121156500Y-68620714D01*
X121299357Y-68620714D01*
X121394595Y-68668333D01*
X121442214Y-68715952D01*
X120108880Y-69287380D02*
X120108880Y-68763571D01*
X120156500Y-68668333D01*
X120251738Y-68620714D01*
X120442214Y-68620714D01*
X120537452Y-68668333D01*
X120108880Y-69239761D02*
X120204119Y-69287380D01*
X120442214Y-69287380D01*
X120537452Y-69239761D01*
X120585071Y-69144523D01*
X120585071Y-69049285D01*
X120537452Y-68954047D01*
X120442214Y-68906428D01*
X120204119Y-68906428D01*
X120108880Y-68858809D01*
X119680309Y-69239761D02*
X119585071Y-69287380D01*
X119394595Y-69287380D01*
X119299357Y-69239761D01*
X119251738Y-69144523D01*
X119251738Y-69096904D01*
X119299357Y-69001666D01*
X119394595Y-68954047D01*
X119537452Y-68954047D01*
X119632690Y-68906428D01*
X119680309Y-68811190D01*
X119680309Y-68763571D01*
X119632690Y-68668333D01*
X119537452Y-68620714D01*
X119394595Y-68620714D01*
X119299357Y-68668333D01*
X118870785Y-69239761D02*
X118775547Y-69287380D01*
X118585071Y-69287380D01*
X118489833Y-69239761D01*
X118442214Y-69144523D01*
X118442214Y-69096904D01*
X118489833Y-69001666D01*
X118585071Y-68954047D01*
X118727928Y-68954047D01*
X118823166Y-68906428D01*
X118870785Y-68811190D01*
X118870785Y-68763571D01*
X118823166Y-68668333D01*
X118727928Y-68620714D01*
X118585071Y-68620714D01*
X118489833Y-68668333D01*
X118013642Y-69287380D02*
X118013642Y-68620714D01*
X118013642Y-68287380D02*
X118061261Y-68335000D01*
X118013642Y-68382619D01*
X117966023Y-68335000D01*
X118013642Y-68287380D01*
X118013642Y-68382619D01*
X117585071Y-69239761D02*
X117489833Y-69287380D01*
X117299357Y-69287380D01*
X117204119Y-69239761D01*
X117156500Y-69144523D01*
X117156500Y-69096904D01*
X117204119Y-69001666D01*
X117299357Y-68954047D01*
X117442214Y-68954047D01*
X117537452Y-68906428D01*
X117585071Y-68811190D01*
X117585071Y-68763571D01*
X117537452Y-68668333D01*
X117442214Y-68620714D01*
X117299357Y-68620714D01*
X117204119Y-68668333D01*
X115442214Y-68335000D02*
X115537452Y-68287380D01*
X115680309Y-68287380D01*
X115823166Y-68335000D01*
X115918404Y-68430238D01*
X115966023Y-68525476D01*
X116013642Y-68715952D01*
X116013642Y-68858809D01*
X115966023Y-69049285D01*
X115918404Y-69144523D01*
X115823166Y-69239761D01*
X115680309Y-69287380D01*
X115585071Y-69287380D01*
X115442214Y-69239761D01*
X115394595Y-69192142D01*
X115394595Y-68858809D01*
X115585071Y-68858809D01*
X114966023Y-68620714D02*
X114966023Y-69287380D01*
X114966023Y-68715952D02*
X114918404Y-68668333D01*
X114823166Y-68620714D01*
X114680309Y-68620714D01*
X114585071Y-68668333D01*
X114537452Y-68763571D01*
X114537452Y-69287380D01*
X113632690Y-69287380D02*
X113632690Y-68287380D01*
X113632690Y-69239761D02*
X113727928Y-69287380D01*
X113918404Y-69287380D01*
X114013642Y-69239761D01*
X114061261Y-69192142D01*
X114108880Y-69096904D01*
X114108880Y-68811190D01*
X114061261Y-68715952D01*
X114013642Y-68668333D01*
X113918404Y-68620714D01*
X113727928Y-68620714D01*
X113632690Y-68668333D01*
X106632690Y-68287380D02*
X106823166Y-68287380D01*
X106918404Y-68335000D01*
X106966023Y-68382619D01*
X107061261Y-68525476D01*
X107108880Y-68715952D01*
X107108880Y-69096904D01*
X107061261Y-69192142D01*
X107013642Y-69239761D01*
X106918404Y-69287380D01*
X106727928Y-69287380D01*
X106632690Y-69239761D01*
X106585071Y-69192142D01*
X106537452Y-69096904D01*
X106537452Y-68858809D01*
X106585071Y-68763571D01*
X106632690Y-68715952D01*
X106727928Y-68668333D01*
X106918404Y-68668333D01*
X107013642Y-68715952D01*
X107061261Y-68763571D01*
X107108880Y-68858809D01*
X105346976Y-68906428D02*
X104585071Y-68906428D01*
X102775547Y-69192142D02*
X102823166Y-69239761D01*
X102966023Y-69287380D01*
X103061261Y-69287380D01*
X103204119Y-69239761D01*
X103299357Y-69144523D01*
X103346976Y-69049285D01*
X103394595Y-68858809D01*
X103394595Y-68715952D01*
X103346976Y-68525476D01*
X103299357Y-68430238D01*
X103204119Y-68335000D01*
X103061261Y-68287380D01*
X102966023Y-68287380D01*
X102823166Y-68335000D01*
X102775547Y-68382619D01*
X102394595Y-69001666D02*
X101918404Y-69001666D01*
X102489833Y-69287380D02*
X102156500Y-68287380D01*
X101823166Y-69287380D01*
X101489833Y-69287380D02*
X101489833Y-68287380D01*
X100918404Y-69287380D01*
X100918404Y-68287380D01*
X99680309Y-69287380D02*
X99680309Y-68287380D01*
X99680309Y-68763571D02*
X99108880Y-68763571D01*
X99108880Y-69287380D02*
X99108880Y-68287380D01*
X98632690Y-69287380D02*
X98632690Y-68287380D01*
X126442214Y-69937380D02*
X126918404Y-69937380D01*
X126966023Y-70413571D01*
X126918404Y-70365952D01*
X126823166Y-70318333D01*
X126585071Y-70318333D01*
X126489833Y-70365952D01*
X126442214Y-70413571D01*
X126394595Y-70508809D01*
X126394595Y-70746904D01*
X126442214Y-70842142D01*
X126489833Y-70889761D01*
X126585071Y-70937380D01*
X126823166Y-70937380D01*
X126918404Y-70889761D01*
X126966023Y-70842142D01*
X124442214Y-70556428D02*
X123680309Y-70556428D01*
X122489833Y-70889761D02*
X122346976Y-70937380D01*
X122108880Y-70937380D01*
X122013642Y-70889761D01*
X121966023Y-70842142D01*
X121918404Y-70746904D01*
X121918404Y-70651666D01*
X121966023Y-70556428D01*
X122013642Y-70508809D01*
X122108880Y-70461190D01*
X122299357Y-70413571D01*
X122394595Y-70365952D01*
X122442214Y-70318333D01*
X122489833Y-70223095D01*
X122489833Y-70127857D01*
X122442214Y-70032619D01*
X122394595Y-69985000D01*
X122299357Y-69937380D01*
X122061261Y-69937380D01*
X121918404Y-69985000D01*
X121489833Y-70937380D02*
X121489833Y-70270714D01*
X121489833Y-69937380D02*
X121537452Y-69985000D01*
X121489833Y-70032619D01*
X121442214Y-69985000D01*
X121489833Y-69937380D01*
X121489833Y-70032619D01*
X120585071Y-70270714D02*
X120585071Y-71080238D01*
X120632690Y-71175476D01*
X120680309Y-71223095D01*
X120775547Y-71270714D01*
X120918404Y-71270714D01*
X121013642Y-71223095D01*
X120585071Y-70889761D02*
X120680309Y-70937380D01*
X120870785Y-70937380D01*
X120966023Y-70889761D01*
X121013642Y-70842142D01*
X121061261Y-70746904D01*
X121061261Y-70461190D01*
X121013642Y-70365952D01*
X120966023Y-70318333D01*
X120870785Y-70270714D01*
X120680309Y-70270714D01*
X120585071Y-70318333D01*
X120108880Y-70270714D02*
X120108880Y-70937380D01*
X120108880Y-70365952D02*
X120061261Y-70318333D01*
X119966023Y-70270714D01*
X119823166Y-70270714D01*
X119727928Y-70318333D01*
X119680309Y-70413571D01*
X119680309Y-70937380D01*
X118775547Y-70937380D02*
X118775547Y-70413571D01*
X118823166Y-70318333D01*
X118918404Y-70270714D01*
X119108880Y-70270714D01*
X119204119Y-70318333D01*
X118775547Y-70889761D02*
X118870785Y-70937380D01*
X119108880Y-70937380D01*
X119204119Y-70889761D01*
X119251738Y-70794523D01*
X119251738Y-70699285D01*
X119204119Y-70604047D01*
X119108880Y-70556428D01*
X118870785Y-70556428D01*
X118775547Y-70508809D01*
X118156500Y-70937380D02*
X118251738Y-70889761D01*
X118299357Y-70794523D01*
X118299357Y-69937380D01*
X116489833Y-69985000D02*
X116585071Y-69937380D01*
X116727928Y-69937380D01*
X116870785Y-69985000D01*
X116966023Y-70080238D01*
X117013642Y-70175476D01*
X117061261Y-70365952D01*
X117061261Y-70508809D01*
X117013642Y-70699285D01*
X116966023Y-70794523D01*
X116870785Y-70889761D01*
X116727928Y-70937380D01*
X116632690Y-70937380D01*
X116489833Y-70889761D01*
X116442214Y-70842142D01*
X116442214Y-70508809D01*
X116632690Y-70508809D01*
X116013642Y-70270714D02*
X116013642Y-70937380D01*
X116013642Y-70365952D02*
X115966023Y-70318333D01*
X115870785Y-70270714D01*
X115727928Y-70270714D01*
X115632690Y-70318333D01*
X115585071Y-70413571D01*
X115585071Y-70937380D01*
X114680309Y-70937380D02*
X114680309Y-69937380D01*
X114680309Y-70889761D02*
X114775547Y-70937380D01*
X114966023Y-70937380D01*
X115061261Y-70889761D01*
X115108880Y-70842142D01*
X115156500Y-70746904D01*
X115156500Y-70461190D01*
X115108880Y-70365952D01*
X115061261Y-70318333D01*
X114966023Y-70270714D01*
X114775547Y-70270714D01*
X114680309Y-70318333D01*
X106823166Y-70937380D02*
X107394595Y-70937380D01*
X107108880Y-70937380D02*
X107108880Y-69937380D01*
X107204119Y-70080238D01*
X107299357Y-70175476D01*
X107394595Y-70223095D01*
X105966023Y-70270714D02*
X105966023Y-70937380D01*
X106204119Y-69889761D02*
X106442214Y-70604047D01*
X105823166Y-70604047D01*
X105442214Y-70556428D02*
X104680309Y-70556428D01*
X102870785Y-70842142D02*
X102918404Y-70889761D01*
X103061261Y-70937380D01*
X103156500Y-70937380D01*
X103299357Y-70889761D01*
X103394595Y-70794523D01*
X103442214Y-70699285D01*
X103489833Y-70508809D01*
X103489833Y-70365952D01*
X103442214Y-70175476D01*
X103394595Y-70080238D01*
X103299357Y-69985000D01*
X103156500Y-69937380D01*
X103061261Y-69937380D01*
X102918404Y-69985000D01*
X102870785Y-70032619D01*
X102489833Y-70651666D02*
X102013642Y-70651666D01*
X102585071Y-70937380D02*
X102251738Y-69937380D01*
X101918404Y-70937380D01*
X101585071Y-70937380D02*
X101585071Y-69937380D01*
X101013642Y-70937380D01*
X101013642Y-69937380D01*
X99299357Y-70937380D02*
X99775547Y-70937380D01*
X99775547Y-69937380D01*
X98775547Y-69937380D02*
X98585071Y-69937380D01*
X98489833Y-69985000D01*
X98394595Y-70080238D01*
X98346976Y-70270714D01*
X98346976Y-70604047D01*
X98394595Y-70794523D01*
X98489833Y-70889761D01*
X98585071Y-70937380D01*
X98775547Y-70937380D01*
X98870785Y-70889761D01*
X98966023Y-70794523D01*
X99013642Y-70604047D01*
X99013642Y-70270714D01*
X98966023Y-70080238D01*
X98870785Y-69985000D01*
X98775547Y-69937380D01*
X126394595Y-72587380D02*
X126966023Y-72587380D01*
X126680309Y-72587380D02*
X126680309Y-71587380D01*
X126775547Y-71730238D01*
X126870785Y-71825476D01*
X126966023Y-71873095D01*
X125537452Y-71587380D02*
X125727928Y-71587380D01*
X125823166Y-71635000D01*
X125870785Y-71682619D01*
X125966023Y-71825476D01*
X126013642Y-72015952D01*
X126013642Y-72396904D01*
X125966023Y-72492142D01*
X125918404Y-72539761D01*
X125823166Y-72587380D01*
X125632690Y-72587380D01*
X125537452Y-72539761D01*
X125489833Y-72492142D01*
X125442214Y-72396904D01*
X125442214Y-72158809D01*
X125489833Y-72063571D01*
X125537452Y-72015952D01*
X125632690Y-71968333D01*
X125823166Y-71968333D01*
X125918404Y-72015952D01*
X125966023Y-72063571D01*
X126013642Y-72158809D01*
X124251738Y-72206428D02*
X123489833Y-72206428D01*
X121727928Y-72587380D02*
X122299357Y-72587380D01*
X122013642Y-72587380D02*
X122013642Y-71587380D01*
X122108880Y-71730238D01*
X122204119Y-71825476D01*
X122299357Y-71873095D01*
X121346976Y-71682619D02*
X121299357Y-71635000D01*
X121204119Y-71587380D01*
X120966023Y-71587380D01*
X120870785Y-71635000D01*
X120823166Y-71682619D01*
X120775547Y-71777857D01*
X120775547Y-71873095D01*
X120823166Y-72015952D01*
X121394595Y-72587380D01*
X120775547Y-72587380D01*
X120489833Y-71587380D02*
X120156500Y-72587380D01*
X119823166Y-71587380D01*
M02*
