%TF.GenerationSoftware,KiCad,Pcbnew,5.1.10*%
%TF.CreationDate,2021-08-17T12:22:00-04:00*%
%TF.ProjectId,OBD_BO,4f42445f-424f-42e6-9b69-6361645f7063,rev?*%
%TF.SameCoordinates,Original*%
%TF.FileFunction,Copper,L1,Top*%
%TF.FilePolarity,Positive*%
%FSLAX46Y46*%
G04 Gerber Fmt 4.6, Leading zero omitted, Abs format (unit mm)*
G04 Created by KiCad (PCBNEW 5.1.10) date 2021-08-17 12:22:00*
%MOMM*%
%LPD*%
G01*
G04 APERTURE LIST*
%TA.AperFunction,ComponentPad*%
%ADD10O,1.700000X1.700000*%
%TD*%
%TA.AperFunction,ComponentPad*%
%ADD11R,1.700000X1.700000*%
%TD*%
%TA.AperFunction,ComponentPad*%
%ADD12C,2.200000*%
%TD*%
%TA.AperFunction,Conductor*%
%ADD13C,1.000000*%
%TD*%
%TA.AperFunction,Conductor*%
%ADD14C,0.250000*%
%TD*%
G04 APERTURE END LIST*
D10*
%TO.P,J3,8*%
%TO.N,Net-(J1-Pad16)*%
X125730000Y-85090000D03*
%TO.P,J3,7*%
%TO.N,Net-(J1-Pad15)*%
X123190000Y-85090000D03*
%TO.P,J3,6*%
%TO.N,Net-(J1-Pad14)*%
X120650000Y-85090000D03*
%TO.P,J3,5*%
%TO.N,Net-(J1-Pad13)*%
X118110000Y-85090000D03*
%TO.P,J3,4*%
%TO.N,Net-(J1-Pad12)*%
X115570000Y-85090000D03*
%TO.P,J3,3*%
%TO.N,Net-(J1-Pad11)*%
X113030000Y-85090000D03*
%TO.P,J3,2*%
%TO.N,Net-(J1-Pad10)*%
X110490000Y-85090000D03*
D11*
%TO.P,J3,1*%
%TO.N,Net-(J1-Pad9)*%
X107950000Y-85090000D03*
%TD*%
D10*
%TO.P,J2,8*%
%TO.N,Net-(J1-Pad8)*%
X101600000Y-85090000D03*
%TO.P,J2,7*%
%TO.N,Net-(J1-Pad7)*%
X99060000Y-85090000D03*
%TO.P,J2,6*%
%TO.N,Net-(J1-Pad6)*%
X96520000Y-85090000D03*
%TO.P,J2,5*%
%TO.N,Net-(J1-Pad5)*%
X93980000Y-85090000D03*
%TO.P,J2,4*%
%TO.N,Net-(J1-Pad4)*%
X91440000Y-85090000D03*
%TO.P,J2,3*%
%TO.N,Net-(J1-Pad3)*%
X88900000Y-85090000D03*
%TO.P,J2,2*%
%TO.N,Net-(J1-Pad2)*%
X86360000Y-85090000D03*
D11*
%TO.P,J2,1*%
%TO.N,Net-(J1-Pad1)*%
X83820000Y-85090000D03*
%TD*%
D12*
%TO.P,J1,16*%
%TO.N,Net-(J1-Pad16)*%
X117600000Y-76660000D03*
%TO.P,J1,15*%
%TO.N,Net-(J1-Pad15)*%
X113600000Y-76660000D03*
%TO.P,J1,14*%
%TO.N,Net-(J1-Pad14)*%
X109600000Y-76660000D03*
%TO.P,J1,13*%
%TO.N,Net-(J1-Pad13)*%
X105600000Y-76660000D03*
%TO.P,J1,12*%
%TO.N,Net-(J1-Pad12)*%
X101600000Y-76660000D03*
%TO.P,J1,11*%
%TO.N,Net-(J1-Pad11)*%
X97600000Y-76660000D03*
%TO.P,J1,10*%
%TO.N,Net-(J1-Pad10)*%
X93600000Y-76660000D03*
%TO.P,J1,9*%
%TO.N,Net-(J1-Pad9)*%
X89600000Y-76660000D03*
%TO.P,J1,8*%
%TO.N,Net-(J1-Pad8)*%
X117600000Y-73660000D03*
%TO.P,J1,7*%
%TO.N,Net-(J1-Pad7)*%
X113600000Y-73660000D03*
%TO.P,J1,6*%
%TO.N,Net-(J1-Pad6)*%
X109600000Y-73660000D03*
%TO.P,J1,5*%
%TO.N,Net-(J1-Pad5)*%
X105600000Y-73660000D03*
%TO.P,J1,4*%
%TO.N,Net-(J1-Pad4)*%
X101600000Y-73660000D03*
%TO.P,J1,3*%
%TO.N,Net-(J1-Pad3)*%
X97600000Y-73660000D03*
%TO.P,J1,2*%
%TO.N,Net-(J1-Pad2)*%
X93600000Y-73660000D03*
%TO.P,J1,1*%
%TO.N,Net-(J1-Pad1)*%
X89600000Y-73660000D03*
%TD*%
D13*
%TO.N,Net-(J1-Pad16)*%
X125730000Y-84790000D02*
X125730000Y-85090000D01*
X117600000Y-76660000D02*
X125730000Y-84790000D01*
D14*
%TO.N,Net-(J1-Pad15)*%
X123190000Y-84694366D02*
X123190000Y-85090000D01*
X115155634Y-76660000D02*
X123190000Y-84694366D01*
X113600000Y-76660000D02*
X115155634Y-76660000D01*
%TO.N,Net-(J1-Pad14)*%
X113645001Y-78085001D02*
X120650000Y-85090000D01*
X111025001Y-78085001D02*
X113645001Y-78085001D01*
X109600000Y-76660000D02*
X111025001Y-78085001D01*
%TO.N,Net-(J1-Pad13)*%
X105600000Y-76660000D02*
X107680000Y-78740000D01*
X111760000Y-78740000D02*
X118110000Y-85090000D01*
X107680000Y-78740000D02*
X111760000Y-78740000D01*
%TO.N,Net-(J1-Pad12)*%
X101600000Y-76660000D02*
X104950000Y-80010000D01*
X110490000Y-80010000D02*
X115570000Y-85090000D01*
X104950000Y-80010000D02*
X110490000Y-80010000D01*
%TO.N,Net-(J1-Pad11)*%
X97600000Y-76660000D02*
X102220000Y-81280000D01*
X109220000Y-81280000D02*
X113030000Y-85090000D01*
X102220000Y-81280000D02*
X109220000Y-81280000D01*
%TO.N,Net-(J1-Pad10)*%
X107130010Y-81730010D02*
X110490000Y-85090000D01*
X98670010Y-81730010D02*
X107130010Y-81730010D01*
X93600000Y-76660000D02*
X98670010Y-81730010D01*
%TO.N,Net-(J1-Pad9)*%
X105040020Y-82180020D02*
X107950000Y-85090000D01*
X95120020Y-82180020D02*
X105040020Y-82180020D01*
X89600000Y-76660000D02*
X95120020Y-82180020D01*
%TD*%
M02*
